<svg width="655" height="655" viewBox="0 0 655 655" fill="none" xmlns="http://www.w3.org/2000/svg">
<circle cx="327.5" cy="327.5" r="327.5" fill="#0C479D"/>
<path fill-rule="evenodd" clip-rule="evenodd" d="M290.987 143.507C236.454 157.532 188.011 192.02 159.621 244.501C141.441 278.053 133.71 314.813 135.192 350.886H166.97L95.7609 445.038L24 350.886H56.0164C54.3577 301.615 64.8279 251.899 89.5729 206.151C105.37 176.994 125.733 151.638 149.36 130.443C175.568 106.97 205.76 88.6186 238.133 75.9951C238.757 75.7356 239.415 75.471 240.082 75.2491C246.587 72.744 253.166 70.4746 259.825 68.4857L261.28 68.0177" fill="white"/>
<path fill-rule="evenodd" clip-rule="evenodd" d="M181.348 461.322C221.554 500.742 276.124 524.368 335.725 521.525C373.844 519.734 409.304 507.34 439.412 487.416L422.978 460.218L540.388 472.472L496.917 582.584L480.359 555.181C439.046 582.082 391.08 598.832 339.128 601.312C306.003 602.87 273.77 598.556 243.411 589.295C209.766 579.003 178.445 562.652 150.899 541.473C150.354 541.073 149.788 540.647 149.253 540.191C143.745 535.919 138.4 531.462 133.254 526.791L132.101 525.788" fill="white"/>
<path fill-rule="evenodd" clip-rule="evenodd" d="M530.174 381.978C540.048 326.543 528.779 268.156 492.815 220.544C469.836 190.077 439.601 167.786 406.166 154.162L392.977 183.073L336.874 79.2087L452.318 53L439.029 82.1283C484.544 101.07 525.43 131.231 556.78 172.732C576.75 199.206 591.367 228.256 600.844 258.549C611.322 292.136 615.486 327.221 613.534 361.914C613.511 362.589 613.478 363.297 613.404 363.996C612.983 370.954 612.317 377.881 611.362 384.766L611.184 386.284" fill="white"/>
</svg>
