<svg width="655" height="655" viewBox="0 0 655 655" fill="none" xmlns="http://www.w3.org/2000/svg">
<path d="M655 327.5C655 508.373 508.373 655 327.5 655C146.627 655 0 508.373 0 327.5C0 146.627 146.627 0 327.5 0C508.373 0 655 146.627 655 327.5Z" fill="white"/>
<path d="M652.5 327.5C652.5 506.993 506.993 652.5 327.5 652.5C148.007 652.5 2.5 506.993 2.5 327.5C2.5 148.007 148.007 2.5 327.5 2.5C506.993 2.5 652.5 148.007 652.5 327.5Z" stroke="black" stroke-width="5"/>
<path d="M524.171 70.0993L520.406 66.3345L65.334 521.406L69.0987 525.171L524.171 70.0993Z" fill="black"/>
<path d="M531.913 76.4999L528.148 72.7351L71.7354 529.148L75.5002 532.913L531.913 76.4999Z" fill="black"/>
<path d="M539.415 83.14L535.65 79.3752L78.3752 536.65L82.14 540.415L539.415 83.14Z" fill="black"/>
<path d="M546.725 89.9716L542.96 86.2068L85.2065 543.96L88.9713 547.725L546.725 89.9716Z" fill="black"/>
<path d="M553.844 96.9948L550.079 93.23L92.23 551.079L95.9948 554.844L553.844 96.9948Z" fill="black"/>
<path d="M561.155 103.827L557.39 100.062L99.0618 558.39L102.826 562.155L561.155 103.827Z" fill="black"/>
<path d="M568.13 110.994L564.365 107.229L106.228 565.366L109.993 569.13L568.13 110.994Z" fill="black"/>
<path d="M574.722 118.543L570.957 114.778L113.778 571.957L117.543 575.722L574.722 118.543Z" fill="black"/>
<path d="M581.362 126.045L577.597 122.28L121.28 578.597L125.044 582.362L581.362 126.045Z" fill="black"/>
<path d="M587.38 134.17L583.615 130.405L129.405 584.615L133.17 588.38L587.38 134.17Z" fill="black"/>
<path d="M403.213 405.203C394.15 406.471 384.271 411.61 381.745 418.164L369.441 450.083C368.995 451.241 368.062 452.136 366.912 452.59C360.834 454.988 359.09 457.156 359 463.101L362.609 503.007C362.972 507.018 366.322 510.089 370.333 510.089V524.311C370.333 527.453 372.87 530 376 530H385.917C389.046 530 391.583 527.453 391.583 524.311V510.089H513.417V524.311C513.417 527.453 515.954 530 519.083 530H529C532.13 530 534.667 527.453 534.667 524.311V510.089C538.678 510.089 542.028 507.018 542.392 503.007L546 463.18C545.91 457.185 544.179 455.004 538.155 452.616C536.967 452.145 536.014 451.204 535.587 449.995L524.623 418.968C522.284 412.351 512.521 407.086 503.456 405.706C487.45 403.27 470.928 402 454.464 402C453.482 402 452.598 402 451.812 402C450.831 402 449.75 402 448.769 402C433.582 402 418.228 403.1 403.213 405.203Z" fill="black"/>
<path d="M524.488 448.074C524.779 449.004 524.073 449.945 523.102 449.915C500.115 449.21 475.863 446.137 451.518 446.137C428.254 446.137 405.083 448.909 382.813 449.249C381.834 449.264 381.142 448.296 381.463 447.367L389.954 422.845C392.236 416.254 402.125 415.351 411.199 414.199C425.572 412.375 437.248 411.444 451.812 411.503C467.632 411.443 480.505 412.546 496.011 414.743C505.062 416.026 514.794 417.056 516.867 423.69L524.488 448.074Z" fill="white"/>
<path d="M373.167 466C373.167 463.644 375.069 461.733 377.417 461.733C379.764 461.733 381.667 463.644 381.667 466V471.689C381.667 474.045 379.764 475.956 377.417 475.956C375.069 475.956 373.167 474.045 373.167 471.689V466Z" fill="white"/>
<path d="M523.333 466C523.333 463.644 525.236 461.733 527.583 461.733C529.931 461.733 531.833 463.644 531.833 466V471.689C531.833 474.045 529.931 475.956 527.583 475.956C525.236 475.956 523.333 474.045 523.333 471.689V466Z" fill="white"/>
<path d="M106 136C106 129.373 111.373 124 118 124H259C265.627 124 271 129.373 271 136V267.647C271 273.932 265.905 279.026 259.621 279.026V279.026V292C259.621 294.209 257.83 296 255.621 296H245.414C243.205 296 241.414 294.209 241.414 292V279.026H198.172C198.172 284.684 197.034 290.342 188.5 290.342C179.966 290.342 178.828 284.684 178.828 279.026H135.586V292C135.586 294.209 133.795 296 131.586 296H121.379C119.17 296 117.379 294.209 117.379 292V279.026V279.026C111.095 279.026 106 273.932 106 267.647V136Z" fill="black"/>
</svg>
